<svg width="7" height="13" viewBox="0 0 7 13" fill="none" xmlns="http://www.w3.org/2000/svg">
<path d="M1.38356 12.7508C1.23288 12.9121 1.0411 13 0.815068 13C0.363014 13 0 12.6189 0 12.1353C0 11.8935 0.09589 11.6736 0.253425 11.5051L5.04795 6.49267L0.253425 1.49493C0.09589 1.32638 0 1.09921 0 0.864713C0 0.38106 0.363014 0 0.815068 0C1.0411 0 1.23288 0.0879369 1.38356 0.249154L6.71233 5.81849C6.90411 6.00902 6.99315 6.24352 7 6.5C7 6.75648 6.90411 6.97632 6.71233 7.17418L1.38356 12.7508Z" fill="#686868"/>
</svg>
