<svg width="7" height="13" viewBox="0 0 7 13" fill="none" xmlns="http://www.w3.org/2000/svg">
<path d="M5.61644 12.7508C5.76712 12.9121 5.9589 13 6.18493 13C6.63699 13 7 12.6189 7 12.1353C7 11.8935 6.90411 11.6736 6.74658 11.5051L1.95205 6.49267L6.74658 1.49493C6.90411 1.32638 7 1.09921 7 0.864713C7 0.38106 6.63699 0 6.18493 0C5.9589 0 5.76712 0.0879369 5.61644 0.249154L0.287671 5.81849C0.0958904 6.00902 0.00684932 6.24352 0 6.5C0 6.75648 0.0958904 6.97632 0.287671 7.17418L5.61644 12.7508Z" fill="#686868"/>
</svg>
