<svg width="78" height="16" viewBox="0 0 78 16" fill="none" xmlns="http://www.w3.org/2000/svg">
<path opacity="0.25" fill-rule="evenodd" clip-rule="evenodd" d="M16.5 2H17.5C18.0523 2 18.5 2.44772 18.5 3V11C18.5 11.5523 18.0523 12 17.5 12H16.5C15.9477 12 15.5 11.5523 15.5 11V3C15.5 2.44772 15.9477 2 16.5 2Z" fill="black"/>
<path fill-rule="evenodd" clip-rule="evenodd" d="M13 4H12C11.4477 4 11 4.44772 11 5V11C11 11.5523 11.4477 12 12 12H13C13.5523 12 14 11.5523 14 11V5C14 4.44772 13.5523 4 13 4ZM7.5 6H8.5C9.05228 6 9.5 6.44772 9.5 7V11C9.5 11.5523 9.05228 12 8.5 12H7.5C6.94772 12 6.5 11.5523 6.5 11V7C6.5 6.44772 6.94772 6 7.5 6ZM3 7.5H4C4.55228 7.5 5 7.94772 5 8.5V11C5 11.5523 4.55228 12 4 12H3C2.44772 12 2 11.5523 2 11V8.5C2 7.94772 2.44772 7.5 3 7.5Z" fill="black"/>
<path d="M27.1328 11V7.33789H30.877V6.40039H27.1328V3.49414H31.2109V2.54492H26.0781V11H27.1328ZM32.7898 11H33.7977V4.68359H32.7898V11ZM33.2937 3.46484C33.6805 3.46484 33.9969 3.14844 33.9969 2.76172C33.9969 2.375 33.6805 2.05859 33.2937 2.05859C32.907 2.05859 32.5906 2.375 32.5906 2.76172C32.5906 3.14844 32.907 3.46484 33.2937 3.46484ZM38.2242 10.0156C37.0523 10.0156 36.3961 9.125 36.3961 7.74805C36.3961 6.37109 37.0523 5.48047 38.2242 5.48047C39.3902 5.48047 40.0992 6.37109 40.0992 7.74805C40.0992 9.125 39.3961 10.0156 38.2242 10.0156ZM38.2711 13.4258C39.9937 13.4258 41.0836 12.5234 41.0836 11.1113V4.68359H40.1227V5.68555H40.0289C39.6656 5.00586 38.8863 4.57227 38.0016 4.57227C36.3785 4.57227 35.3531 5.85547 35.3531 7.74805C35.3531 9.64062 36.3668 10.9062 38.0016 10.9062C38.8687 10.9062 39.5836 10.5137 39.982 9.81641H40.0758V11.0586C40.0758 11.9902 39.402 12.5469 38.2711 12.5469C37.3629 12.5469 36.8004 12.2129 36.6891 11.6973H35.6227C35.775 12.7402 36.7477 13.4258 38.2711 13.4258ZM42.932 11H43.9398V7.08594C43.9398 6.19531 44.5785 5.48047 45.4047 5.48047C46.2016 5.48047 46.723 5.96094 46.723 6.71094V11H47.7309V6.93945C47.7309 6.13672 48.3168 5.48047 49.1957 5.48047C50.0863 5.48047 50.5258 5.9375 50.5258 6.86914V11H51.5336V6.63477C51.5336 5.31055 50.8129 4.57227 49.5238 4.57227C48.6508 4.57227 47.9301 5.01172 47.5902 5.67969H47.4965C47.2035 5.02344 46.6059 4.57227 45.7504 4.57227C44.9066 4.57227 44.2738 4.97656 43.9867 5.67969H43.893V4.68359H42.932V11ZM55.2687 10.2266C54.5363 10.2266 53.9914 9.85156 53.9914 9.20703C53.9914 8.57422 54.4133 8.24023 55.3742 8.17578L57.0734 8.06445V8.64453C57.0734 9.54688 56.3059 10.2266 55.2687 10.2266ZM55.0812 11.1113C55.925 11.1113 56.6164 10.7422 57.0266 10.0684H57.1203V11H58.0812V6.67578C58.0812 5.36328 57.2199 4.57227 55.6789 4.57227C54.3312 4.57227 53.3352 5.24023 53.2004 6.25391H54.2199C54.3605 5.75586 54.8879 5.46875 55.6437 5.46875C56.5871 5.46875 57.0734 5.89648 57.0734 6.67578V7.25L55.2512 7.36133C53.7805 7.44922 52.9484 8.09961 52.9484 9.23047C52.9484 10.3848 53.8566 11.1113 55.0812 11.1113Z" fill="black"/>
<path fill-rule="evenodd" clip-rule="evenodd" d="M76.9828 4.52294C75.0717 2.89057 72.6574 2 70.1327 2C67.6006 2 65.1795 2.89589 63.2661 4.53708L63.1036 4.67646C62.9722 4.78918 62.9647 4.98954 63.0873 5.11176L64.2142 6.23557C64.3236 6.34466 64.4985 6.3521 64.6168 6.2527L64.7564 6.13541C66.2633 4.86943 68.1552 4.18035 70.1327 4.18035C72.1035 4.18035 73.9894 4.86472 75.494 6.12283L75.6336 6.23952C75.7519 6.33847 75.9264 6.33084 76.0356 6.22195L77.1627 5.09797C77.2855 4.97558 77.2777 4.77488 77.1459 4.66228L76.9828 4.52294ZM70.1327 5.46979C71.7236 5.46979 73.251 5.99754 74.4953 6.97486L74.6711 7.11298C74.8113 7.2231 74.8236 7.43059 74.6974 7.55643L73.5667 8.68407C73.4621 8.78836 73.2966 8.80034 73.178 8.7122L73.0401 8.60976C72.1997 7.98518 71.1864 7.65015 70.1327 7.65015C69.0726 7.65015 68.0533 7.98934 67.2101 8.62109L67.0721 8.72448C66.9535 8.81334 66.7874 8.80164 66.6825 8.69703L65.5522 7.56981C65.4262 7.44423 65.4382 7.23727 65.5777 7.12694L65.7526 6.98871C66.9998 6.00267 68.5342 5.46979 70.1327 5.46979ZM70.1327 8.93959C70.7722 8.93959 71.3936 9.10763 71.9411 9.42805L72.163 9.55788C72.3311 9.65631 72.3607 9.88666 72.2228 10.0242L70.3287 11.913C70.2124 12.029 70.0238 12.029 69.9074 11.913L68.0255 10.0363C67.8882 9.8994 67.9169 9.67022 68.0836 9.57107L68.303 9.44065C68.8555 9.11212 69.4848 8.93959 70.1327 8.93959Z" fill="black"/>
</svg>
