<svg width="91" height="17" viewBox="0 0 91 17" fill="none" xmlns="http://www.w3.org/2000/svg">
<path opacity="0.35" fill-rule="evenodd" clip-rule="evenodd" d="M66.5 1.5H85.5C86.8807 1.5 88 2.61929 88 4V10.5C88 11.8807 86.8807 13 85.5 13H66.5C65.1193 13 64 11.8807 64 10.5V4C64 2.61929 65.1193 1.5 66.5 1.5ZM66.5 2.5C65.6716 2.5 65 3.17157 65 4V10.5C65 11.3284 65.6716 12 66.5 12H85.5C86.3284 12 87 11.3284 87 10.5V4C87 3.17157 86.3284 2.5 85.5 2.5H66.5Z" fill="black"/>
<path opacity="0.4" fill-rule="evenodd" clip-rule="evenodd" d="M89 4.7998C89.8904 5.25498 90.5 6.18128 90.5 7.24995C90.5 8.31862 89.8904 9.24492 89 9.7001V4.7998Z" fill="black"/>
<path fill-rule="evenodd" clip-rule="evenodd" d="M67 3.5H85C85.5523 3.5 86 3.94772 86 4.5V10C86 10.5523 85.5523 11 85 11H67C66.4477 11 66 10.5523 66 10V4.5C66 3.94772 66.4477 3.5 67 3.5Z" fill="black"/>
<path d="M33.168 11.3H34.2227V2.84497H33.1738L30.9238 4.46216V5.57544L33.0742 4.01685H33.168V11.3ZM39.5898 11.4993C41.4883 11.4993 42.5781 9.8938 42.5781 7.08716C42.5781 4.28638 41.4707 2.64575 39.5898 2.64575C37.6973 2.64575 36.5898 4.28052 36.5898 7.06958C36.5898 9.88208 37.6855 11.4993 39.5898 11.4993ZM39.5898 10.5793C38.3418 10.5793 37.6504 9.3313 37.6504 7.06958C37.6504 4.83716 38.3535 3.57153 39.5898 3.57153C40.8262 3.57153 41.5176 4.82544 41.5176 7.06958C41.5176 9.33716 40.8379 10.5793 39.5898 10.5793ZM47.1484 11.4993C49.0469 11.4993 50.1367 9.8938 50.1367 7.08716C50.1367 4.28638 49.0293 2.64575 47.1484 2.64575C45.2559 2.64575 44.1484 4.28052 44.1484 7.06958C44.1484 9.88208 45.2441 11.4993 47.1484 11.4993ZM47.1484 10.5793C45.9004 10.5793 45.209 9.3313 45.209 7.06958C45.209 4.83716 45.9121 3.57153 47.1484 3.57153C48.3848 3.57153 49.0762 4.82544 49.0762 7.06958C49.0762 9.33716 48.3965 10.5793 47.1484 10.5793ZM53.1367 6.67114C54.2793 6.67114 54.9707 5.927 54.9707 4.67896C54.9707 3.44849 54.2734 2.69263 53.1367 2.69263C52 2.69263 51.2969 3.44849 51.2969 4.67896C51.2969 5.92114 51.9883 6.67114 53.1367 6.67114ZM53.1367 5.90356C52.5449 5.90356 52.2051 5.45825 52.2051 4.68481C52.2051 3.91724 52.5449 3.46606 53.1367 3.46606C53.7227 3.46606 54.0625 3.91724 54.0625 4.68481C54.0625 5.45239 53.7285 5.90356 53.1367 5.90356ZM53.5176 11.3L59.3594 2.84497H58.4043L52.5625 11.3H53.5176ZM58.791 11.3821C59.9336 11.3821 60.625 10.6379 60.625 9.38989C60.625 8.15942 59.9277 7.40356 58.791 7.40356C57.6543 7.40356 56.9512 8.15942 56.9512 9.38989C56.9512 10.6321 57.6484 11.3821 58.791 11.3821ZM58.791 10.6145C58.1992 10.6145 57.8652 10.1692 57.8652 9.39575C57.8652 8.62817 58.1992 8.177 58.791 8.177C59.3828 8.177 59.7168 8.62817 59.7168 9.39575C59.7168 10.1633 59.3828 10.6145 58.791 10.6145Z" fill="black"/>
<path fill-rule="evenodd" clip-rule="evenodd" d="M2.26912 4.69225C2.1 4.46378 2 4.18107 2 3.875C2 3.11561 2.61561 2.5 3.375 2.5C3.64743 2.5 3.90135 2.57923 4.11498 2.7159C3.34423 3.20596 2.70675 3.88693 2.26912 4.69225ZM11.37 7.255C11.37 9.67125 9.41125 11.63 6.995 11.63C4.57875 11.63 2.62 9.67125 2.62 7.255C2.62 4.83875 4.57875 2.88 6.995 2.88C9.41125 2.88 11.37 4.83875 11.37 7.255ZM7.38 7.875H5.25V7.12H6.63V4.5H7.38V7.875ZM10.625 2.5C10.3505 2.5 10.0947 2.58046 9.88004 2.71909C10.651 3.21049 11.2883 3.89306 11.7251 4.70001C11.8977 4.4702 12 4.18455 12 3.875C12 3.11561 11.3844 2.5 10.625 2.5Z" fill="black"/>
<path fill-rule="evenodd" clip-rule="evenodd" d="M21 6.98339V6.97121L18.0437 4.28366L18.7164 3.54372L21 5.61975V1.11975L24.9933 4.75003L22.5183 7.00003L24.9933 9.25003L21 12.8803V8.33485L18.7164 10.4109L18.0437 9.67094L21 6.98339ZM22 6.11975L23.5067 4.75003L22 3.3803V6.11975ZM23.5067 9.25003L22 10.6198V7.8803L23.5067 9.25003Z" fill="black"/>
</svg>
